# xmcd
#
# Track frame offsets: 
#        183
#        11160
#        23028
#        33803
#        46598
#        60080
#        72490
#        85500
#        98258
#        111980
#        124193
#        136310
#        149980
#        162963
#        173420
#        187885
#        199393
#        209885
#        224010
#        235905
#        248413
#        260188
#
# Disc length: 3653 seconds
#
# Revision: 10
# Processed by: cddbd v1.5.2PL0 Copyright (c) Steve Scherf et al.
# Submitted via: ExactAudioCopyFreeDBPlugin 1.0
#
DISCID=380e4316
DTITLE=Various Artist - Rhythm And Blues - 1967
DYEAR=1991
DGENRE=R&B
TTITLE0=Aretha Franklin - Respect
TTITLE1=Sam And Dave - Soul Man
TTITLE2=Esquires - Get On Up
TTITLE3=Martha And The Vandellas - Jimmy Mack
TTITLE4=Temptations - You're My Everything
TTITLE5=Gladys Knight And The Pips - I Heard It Through The Grapevine
TTITLE6=Otis Redding And Carla Thomas - Tramp
TTITLE7=Marvelettes - The Hunter Gets Captured By The Game
TTITLE8=Marvin Gaye And Tammi Terrell - Your Precious Love
TTITLE9=Aretha Franklin - I Never Loved A Man (The Way I Love You)
TTITLE10=Aaron Neville - Tell It Like It Is
TTITLE11=Four Tops - Bernadette
TTITLE12=Jackie Wilson - (Your Love Keeps Lifting Me) Higher And Highe
TTITLE12=r
TTITLE13=Bar-Kays - Soul Finger
TTITLE14=Freddie Scott - Are You Lonely For Me
TTITLE15=Wilson Pickett - Funky Broadway
TTITLE16=Arthur Conley - Sweet Soul Music
TTITLE17=Cannonball Adderley - Mercy Mercy Mercy
TTITLE18=Linda Jones - Hypnotized
TTITLE19=Supremes - Love Is Here And Now You're Gone
TTITLE20=Peaches And Herb - Close Your Eyes
TTITLE21=Toussaint McCall - Nothing Takes The Place Of You
EXTD=YEAR: 1991
EXTT0=
EXTT1=
EXTT2=
EXTT3=
EXTT4=
EXTT5=
EXTT6=
EXTT7=
EXTT8=
EXTT9=
EXTT10=
EXTT11=
EXTT12=
EXTT13=
EXTT14=
EXTT15=
EXTT16=
EXTT17=
EXTT18=
EXTT19=
EXTT20=
EXTT21=
PLAYORDER=
